<?xml version="1.0" encoding="UTF-8" standalone="no"?><!-- Generator: Gravit.io --><svg xmlns="http://www.w3.org/2000/svg" xmlns:xlink="http://www.w3.org/1999/xlink" style="isolation:isolate" viewBox="-262 -79 47.38 10.402" width="47.38pt" height="10.402pt"><g><path d=" M -251.598 -73.79 C -251.594 -75.894 -252.859 -77.793 -254.802 -78.601 C -256.745 -79.409 -258.984 -78.967 -260.473 -77.48 C -261.963 -75.993 -262.409 -73.755 -261.605 -71.811 C -260.8 -69.866 -258.903 -68.598 -256.799 -68.598 C -253.93 -68.598 -251.603 -70.921 -251.598 -73.79 Z " fill="rgb(0,0,0)"/><path d=" M -214.62 -73.79 C -214.616 -75.894 -215.881 -77.793 -217.824 -78.601 C -219.767 -79.409 -222.006 -78.967 -223.495 -77.48 C -224.984 -75.993 -225.431 -73.755 -224.627 -71.811 C -223.822 -69.866 -221.925 -68.598 -219.821 -68.598 C -216.952 -68.598 -214.625 -70.921 -214.62 -73.79 L -214.62 -73.79 Z " fill="rgb(0,0,0)"/><path d=" M -233.109 -73.79 C -233.109 -73.934 -233.166 -74.072 -233.268 -74.174 C -233.37 -74.276 -233.509 -74.334 -233.653 -74.334 L -242.967 -74.334 C -243.11 -74.334 -243.248 -74.276 -243.348 -74.174 C -243.449 -74.072 -243.504 -73.933 -243.502 -73.79 C -243.384 -71.005 -241.092 -68.808 -238.305 -68.808 C -235.518 -68.808 -233.226 -71.005 -233.109 -73.79 L -233.109 -73.79 Z " fill="rgb(0,0,0)"/></g></svg>