<svg width="179" height="46" viewBox="0 0 179 46" fill="none" xmlns="http://www.w3.org/2000/svg">
<path d="M28.5153 0.367188H24.8359V20.4232H28.5153V13.9832H36.7938V10.3032H28.5153V0.367188Z" fill="white"/>
<path d="M40.4723 0.367188H36.793V20.4232H40.4723V0.367188Z" fill="white"/>
<path d="M10.3022 13.9831H15.8212C14.7174 15.8231 12.5098 16.9271 10.3022 16.9271C8.46249 16.9271 6.80678 16.1911 5.51901 14.9031C4.41521 13.7991 3.67934 12.1431 3.67934 10.3031C3.67934 6.62307 6.62282 3.67907 10.3022 3.67907C12.1418 3.67907 13.7975 4.41507 15.0853 5.70307L17.6608 3.12707C15.8212 1.28707 13.2456 0.183069 10.3022 0.183069C4.59918 -0.000931501 0 4.59907 0 10.3031C0 13.0631 1.1038 15.6391 2.94347 17.6631C4.78314 19.5031 7.35868 20.6071 10.3022 20.6071C16.0051 20.6071 20.6043 16.0071 20.6043 10.3031H10.3022V13.9831Z" fill="white"/>
<path d="M10.3018 42.3182C8.46211 42.3182 6.80641 41.5822 5.51864 40.2942C4.41484 39.1902 3.67897 37.5342 3.67897 35.6942C3.67897 33.8542 4.41484 32.1982 5.70261 31.0942C6.99038 29.8062 8.64608 29.0702 10.4858 29.0702C12.3254 29.0702 13.9811 29.8062 15.2689 31.0942L17.8444 28.5182C16.0048 26.6782 13.4292 25.5742 10.4858 25.5742C7.54228 25.5742 4.96674 26.6782 3.12707 28.5182C1.2874 30.3582 0.183594 32.9342 0.183594 35.6942C0.183594 38.4542 1.2874 41.0302 3.12707 43.0542C4.96674 44.8942 7.54228 45.9982 10.4858 45.9982C13.4292 45.9982 16.0048 44.8942 17.8444 43.0542C17.1086 42.3182 16.1887 41.3982 15.2689 40.4782C13.7972 41.5822 12.1415 42.3182 10.3018 42.3182Z" fill="white"/>
<path d="M54.8227 38.2718C54.8227 40.4798 52.9831 42.3198 50.7754 42.3198C48.5678 42.3198 46.7282 40.4798 46.7282 38.2718V25.7598H43.0488V38.2718C43.0488 42.5038 46.5442 45.9998 50.7754 45.9998C55.0067 45.9998 58.5021 42.5038 58.5021 38.2718V25.7598H54.8227V38.2718Z" fill="white"/>
<path d="M77.0824 34.7758C77.6343 33.8558 78.0022 32.7518 78.0022 31.6478C78.0022 28.3358 75.2427 25.7598 72.1153 25.7598H64.3887V45.8158H73.955C77.2664 45.8158 79.8419 43.2398 79.8419 39.9278C79.8419 37.7198 78.7381 35.8798 77.0824 34.7758ZM68.068 29.4398H72.1153C73.4031 29.4398 74.3229 30.3598 74.3229 31.6478C74.3229 32.9358 73.4031 33.8558 72.1153 33.8558H68.068V29.4398ZM73.955 41.9518H68.068V37.5358H73.955C75.2427 37.5358 76.1626 38.4558 76.1626 39.7438C76.1626 41.0318 75.2427 41.9518 73.955 41.9518Z" fill="white"/>
<path d="M28.6989 25.7598H25.0195V45.6318H38.4491V41.9518H28.6989V25.7598Z" fill="white"/>
<path d="M85.9131 32.5696L86.6489 32.0176C87.0169 32.5696 87.2009 32.7536 87.7528 32.7536C88.1207 32.7536 88.4886 32.5696 88.6726 32.3856C88.8566 32.2016 89.0405 31.8336 89.2245 31.0976L90.1443 27.6016H91.2481L90.3283 31.2816C90.1443 32.2016 89.9604 32.5696 89.4085 32.9376C89.0405 33.3056 88.4886 33.4896 87.7528 33.4896C87.0169 33.6736 86.281 33.3056 85.9131 32.5696Z" fill="white"/>
<path d="M91.6152 32.3843C91.6152 32.2003 91.6152 31.8323 91.7992 31.6483L92.5351 29.2563H93.6389L92.903 31.6483C92.903 31.8323 92.903 32.0163 92.903 32.0163C92.903 32.3843 93.2709 32.7523 93.6389 32.7523C94.1908 32.7523 94.7427 32.3843 94.9266 31.6483L95.6625 29.0723H96.7663L95.6625 33.4883H94.5587L94.7427 32.9363C94.3747 33.3043 94.0068 33.6723 93.4549 33.6723C92.1671 33.6723 91.6152 33.1203 91.6152 32.3843Z" fill="white"/>
<path d="M96.583 32.9363L97.1349 32.3843C97.6868 32.9363 98.0547 32.9363 98.6066 32.9363C98.9746 32.9363 99.3425 32.7523 99.3425 32.3843C99.3425 32.2003 99.1585 32.0163 98.6066 31.8323C97.8708 31.4643 97.3189 31.2803 97.3189 30.5443C97.3189 29.6243 98.0547 29.0723 98.9746 29.0723C99.7104 29.0723 100.262 29.4403 100.63 29.6243L100.078 30.3603C99.7104 29.9923 99.3425 29.8083 98.7906 29.8083C98.4227 29.8083 98.0547 29.9923 98.0547 30.3603C98.0547 30.5443 98.2387 30.7283 98.7906 30.9123C99.5265 31.2803 100.078 31.4643 100.078 32.2003C100.078 33.1203 99.3425 33.6723 98.2387 33.6723C97.8708 33.6723 97.1349 33.4883 96.583 32.9363Z" fill="white"/>
<path d="M101.551 32.7512C101.551 32.5672 101.551 32.3832 101.551 32.1992L102.103 29.9912H101.551L101.735 29.0712H102.287L102.655 27.7832H103.758L103.39 29.0712H104.494L104.31 29.9912H103.206L102.655 32.1992V32.3832C102.655 32.5672 102.839 32.7512 103.023 32.7512C103.206 32.7512 103.39 32.7512 103.758 32.5672L103.574 33.4872C103.39 33.6712 103.023 33.6712 102.655 33.6712C101.919 33.6712 101.551 33.3032 101.551 32.7512Z" fill="white"/>
<path d="M107.621 32.5683C107.621 32.2003 107.805 31.8323 107.989 31.4643C108.357 31.0963 108.909 30.9123 109.461 30.9123C110.013 30.9123 110.381 31.0963 110.749 31.0963C110.749 30.9123 110.749 30.9123 110.749 30.7283C110.749 30.3603 110.381 29.9923 109.829 29.9923C109.461 29.9923 108.909 30.1763 108.541 30.1763L108.725 29.4403C109.093 29.2563 109.645 29.0723 110.381 29.0723C111.484 29.0723 112.22 29.6243 112.22 30.3603C112.22 30.5443 112.22 30.7283 112.036 31.0963L111.3 33.4883H110.381L110.565 32.9363C110.197 33.3043 109.645 33.6723 109.093 33.6723C108.357 33.6723 107.621 33.3043 107.621 32.5683ZM110.749 32.0163V31.8323C110.381 31.6483 110.013 31.6483 109.645 31.6483C109.277 31.6483 108.909 31.8323 108.725 32.0163C108.541 32.2003 108.541 32.3843 108.541 32.5683C108.541 32.9363 108.909 33.1203 109.277 33.1203C110.013 32.9363 110.565 32.5683 110.749 32.0163Z" fill="white"/>
<path d="M116.268 29.2563H117.371V32.2003L119.211 29.0723H120.131L120.315 32.2003L121.971 29.2563H123.074L120.499 33.6723H119.579L119.395 30.7283L117.555 33.6723H116.636L116.268 29.2563Z" fill="white"/>
<path d="M124.73 27.416H125.834L125.098 29.808C125.466 29.44 125.833 29.072 126.385 29.072C127.121 29.072 127.673 29.624 127.673 30.36C127.673 30.544 127.673 30.912 127.489 31.096L126.937 33.672H125.834L126.569 31.28C126.569 31.096 126.569 30.912 126.569 30.912C126.569 30.544 126.201 30.176 125.834 30.176C125.282 30.176 124.73 30.544 124.546 31.28L123.81 33.856H122.706L124.73 27.416Z" fill="white"/>
<path d="M129.698 29.2576H130.801L129.698 33.6736H128.594L129.698 29.2576ZM130.249 27.6016H131.353L131.169 28.5216H130.065L130.249 27.6016Z" fill="white"/>
<path d="M130.985 32.9363L131.537 32.3843C132.089 32.9363 132.457 32.9363 133.009 32.9363C133.377 32.9363 133.745 32.7523 133.745 32.3843C133.745 32.2003 133.561 32.0163 133.009 31.8323C132.273 31.4643 131.721 31.2803 131.721 30.5443C131.721 29.6243 132.457 29.0723 133.377 29.0723C134.113 29.0723 134.665 29.4403 135.033 29.6243L134.481 30.3603C134.113 29.9923 133.745 29.8083 133.193 29.8083C132.825 29.8083 132.457 29.9923 132.457 30.3603C132.457 30.5443 132.641 30.7283 133.193 30.9123C133.929 31.2803 134.481 31.4643 134.481 32.2003C134.481 33.1203 133.745 33.6723 132.641 33.6723C132.273 33.6723 131.537 33.4883 130.985 32.9363Z" fill="white"/>
<path d="M136.872 32.7523L136.321 34.9603H135.217L136.689 29.2563H137.792L137.608 29.8083C137.976 29.4403 138.528 29.0723 139.08 29.0723C140 29.0723 140.736 29.8083 140.736 30.9123C140.736 31.6483 140.368 32.3843 140 32.9363C139.632 33.3043 138.896 33.6723 138.344 33.6723C137.608 33.6723 137.24 33.3043 136.872 32.7523ZM139.264 32.3843C139.632 32.0163 139.816 31.6483 139.816 31.0963C139.816 30.3603 139.448 29.9923 138.712 29.9923C138.344 29.9923 137.976 30.1763 137.608 30.5443C137.24 30.9123 137.056 31.2803 137.056 31.8323C137.056 32.5683 137.608 32.9363 138.16 32.9363C138.712 32.7523 139.08 32.7523 139.264 32.3843Z" fill="white"/>
<path d="M142.943 31.8319C142.943 32.5679 143.311 32.9359 144.047 32.9359C144.415 32.9359 144.783 32.7519 145.151 32.5679L145.703 33.3039C145.335 33.6719 144.783 33.8559 144.047 33.8559C142.759 33.8559 142.023 33.1199 142.023 31.8319C142.023 31.0959 142.391 30.3599 142.759 29.9919C143.127 29.6239 143.863 29.2559 144.599 29.2559C145.703 29.2559 146.439 29.9919 146.439 30.9119C146.439 31.2799 146.439 31.4639 146.255 31.8319H142.943ZM142.943 31.0959H145.335C145.335 31.0959 145.335 30.9119 145.335 30.7279C145.335 30.1759 145.151 29.8079 144.415 29.8079C144.047 29.8079 143.679 29.9919 143.311 30.1759C143.127 30.5439 143.127 30.7279 142.943 31.0959Z" fill="white"/>
<path d="M148.094 29.2563H149.014L148.83 30.1763C149.382 29.4403 149.934 29.0723 150.67 29.0723L150.302 30.1763C149.382 30.1763 148.646 30.7283 148.278 32.0163L147.91 33.6723H146.807L148.094 29.2563Z" fill="white"/>
<path d="M150.302 32.3848H151.405L151.037 33.4888H149.934L150.302 32.3848Z" fill="white"/>
<path d="M87.9366 36.8008H89.0404L87.3847 42.6888H86.4648L87.9366 36.8008Z" fill="white"/>
<path d="M93.6401 36.6152H94.7439L94.192 38.8232C94.5599 38.4552 94.9279 38.0872 95.4798 38.0872C96.2156 38.0872 96.7675 38.6392 96.7675 39.3752C96.7675 39.5592 96.7675 39.9272 96.5836 40.1112L96.0317 42.5032H94.9279L95.6637 40.1112C95.6637 39.9272 95.6637 39.7432 95.6637 39.7432C95.6637 39.3752 95.2958 39.0072 94.9279 39.0072C94.3759 39.0072 93.8241 39.3752 93.6401 40.1112L92.9042 42.6872H91.9844L93.6401 36.6152Z" fill="white"/>
<path d="M98.7909 40.8494C98.7909 41.5854 99.1589 41.9534 99.8947 41.9534C100.263 41.9534 100.631 41.7694 100.999 41.5854L101.55 42.3214C101.182 42.6894 100.631 42.8734 99.8947 42.8734C98.607 42.8734 97.8711 42.1374 97.8711 40.8494C97.8711 40.1134 98.239 39.3774 98.607 39.0094C98.9749 38.6414 99.7108 38.2734 100.447 38.2734C101.55 38.2734 102.286 39.0094 102.286 39.9294C102.286 40.2974 102.286 40.4814 102.102 40.8494H98.7909ZM98.7909 40.1134H101.182C101.182 40.1134 101.182 39.9294 101.182 39.7454C101.182 39.1934 100.999 38.8254 100.263 38.8254C99.8947 38.8254 99.5268 39.0094 99.1589 39.1934C99.1589 39.5614 98.9749 39.9294 98.7909 40.1134Z" fill="white"/>
<path d="M102.838 41.5839C102.838 41.2159 103.022 40.8479 103.206 40.4799C103.574 40.1119 104.126 39.9279 104.678 39.9279C105.229 39.9279 105.597 40.1119 105.965 40.1119C105.965 39.9279 105.965 39.9279 105.965 39.7439C105.965 39.3759 105.597 39.0079 105.045 39.0079C104.678 39.0079 104.126 39.1919 103.758 39.1919L103.574 38.4559C103.942 38.2719 104.494 38.0879 105.229 38.0879C106.333 38.0879 107.069 38.6399 107.069 39.3759C107.069 39.5599 107.069 39.7439 106.885 40.1119L106.149 42.5039H105.229L105.413 41.9519C105.045 42.3199 104.494 42.6879 103.942 42.6879C103.39 42.6879 102.838 42.3199 102.838 41.5839ZM105.965 41.0319V40.8479C105.597 40.6639 105.229 40.6639 104.862 40.6639C104.494 40.6639 104.126 40.8479 103.942 41.0319C103.758 41.2159 103.758 41.3999 103.758 41.5839C103.758 41.9519 104.126 42.1359 104.494 42.1359C105.229 42.1359 105.781 41.5839 105.965 41.0319Z" fill="white"/>
<path d="M109.093 38.2719H110.197L110.013 39.1919C110.565 38.4559 111.117 38.0879 111.853 38.0879L111.485 39.1919C110.565 39.1919 109.829 39.7439 109.461 41.0319L109.093 42.6879H107.989L109.093 38.2719Z" fill="white"/>
<path d="M115.716 38.2712H116.82L115.716 42.6872H114.612L115.716 38.2712ZM116.084 36.6152H117.188L117.004 37.5352H115.9L116.084 36.6152Z" fill="white"/>
<path d="M117.739 41.9524C117.739 41.7684 117.739 41.5844 117.739 41.4004L118.291 39.1924H117.739L117.923 38.2724H118.475L118.843 36.9844H119.947L119.579 38.2724H120.683L120.499 39.1924H119.395L118.843 41.4004V41.5844C118.843 41.7684 119.027 41.9524 119.211 41.9524C119.395 41.9524 119.579 41.9524 119.947 41.7684L119.579 42.6884C119.395 42.8724 119.027 42.8724 118.659 42.8724C118.107 42.6884 117.739 42.3204 117.739 41.9524Z" fill="white"/>
<path d="M124.914 38.2712H126.018L124.914 42.6872H123.811L124.914 38.2712ZM125.282 36.6152H126.386L126.202 37.5352H125.098L125.282 36.6152Z" fill="white"/>
<path d="M127.49 38.2719H128.594L128.41 38.8239C128.778 38.4559 129.146 38.0879 129.698 38.0879C130.434 38.0879 130.986 38.6399 130.986 39.3759C130.986 39.5599 130.986 39.9279 130.802 40.1119L130.25 42.5039H129.146L129.882 40.1119C129.882 39.9279 129.882 39.7439 129.882 39.7439C129.882 39.3759 129.514 39.0079 129.146 39.0079C128.594 39.0079 128.042 39.3759 127.858 40.1119L127.122 42.6879H126.019L127.49 38.2719Z" fill="white"/>
<path d="M135.769 38.2719H136.872L136.688 38.8239C137.056 38.4559 137.424 38.0879 137.976 38.0879C138.712 38.0879 139.08 38.4559 139.264 39.0079C139.632 38.4559 140.184 38.0879 140.92 38.0879C141.656 38.0879 142.207 38.6399 142.207 39.3759C142.207 39.5599 142.207 39.9279 142.024 40.1119L141.288 42.5039H140.184L140.92 40.1119C140.92 39.9279 140.92 39.7439 140.92 39.7439C140.92 39.3759 140.736 39.0079 140.184 39.0079C139.632 39.0079 139.264 39.3759 139.08 40.1119L138.344 42.6879H137.24L137.976 40.2959C137.976 40.1119 137.976 39.9279 137.976 39.9279C137.976 39.5599 137.792 39.1919 137.24 39.1919C136.688 39.1919 136.321 39.5599 136.137 40.2959L135.401 42.8719H134.297L135.769 38.2719Z" fill="white"/>
<path d="M143.311 38.2734H144.415L144.783 41.5854L146.806 38.2734H147.91L144.967 42.8734C144.415 43.7934 143.863 44.1614 143.127 44.1614C142.759 44.1614 142.391 43.9774 142.207 43.7934L142.759 43.0574C142.943 43.2414 143.127 43.2414 143.311 43.2414C143.495 43.2414 143.863 43.0574 144.047 42.6894L143.311 38.2734Z" fill="white"/>
<path d="M150.302 43.4239L150.854 42.6879C151.406 43.0559 151.957 43.2399 152.509 43.2399C153.061 43.2399 153.429 43.0559 153.613 42.8719C153.797 42.6879 153.981 42.3199 154.165 41.9519V41.7679C153.797 42.1359 153.245 42.3199 152.693 42.3199C151.773 42.3199 151.038 41.7679 151.038 40.6639C151.038 39.9279 151.406 39.1919 151.773 38.8239C152.141 38.4559 152.877 38.0879 153.429 38.0879C154.349 38.0879 154.717 38.4559 154.901 39.0079L155.085 38.2719H156.189L155.269 41.9519C155.085 42.6879 154.901 43.0559 154.533 43.4239C154.165 43.7919 153.613 43.9759 152.877 43.9759C151.773 43.9759 150.854 43.7919 150.302 43.4239ZM154.165 41.0319C154.533 40.6639 154.533 40.4799 154.533 39.9279C154.533 39.3759 154.165 39.0079 153.429 39.0079C153.061 39.0079 152.693 39.1919 152.325 39.3759C151.957 39.7439 151.773 40.1119 151.773 40.4799C151.773 41.0319 152.141 41.3999 152.877 41.3999C153.429 41.5839 153.797 41.3999 154.165 41.0319Z" fill="white"/>
<path d="M158.212 36.6152H159.316L158.764 38.8232C159.132 38.4552 159.5 38.0872 160.051 38.0872C160.787 38.0872 161.339 38.6392 161.339 39.3752C161.339 39.5592 161.339 39.9272 161.155 40.1112L160.603 42.5032H159.5L160.235 40.1112C160.235 39.9272 160.235 39.7432 160.235 39.7432C160.235 39.3752 159.867 39.0072 159.5 39.0072C158.948 39.0072 158.396 39.3752 158.212 40.1112L157.476 42.6872H156.372L158.212 36.6152Z" fill="white"/>
<path d="M167.043 40.1119C167.043 40.8479 166.675 41.3999 166.307 41.9519C165.755 42.5039 165.203 42.6879 164.467 42.6879C163.179 42.6879 162.443 41.7679 162.443 40.6639C162.443 39.9279 162.811 39.3759 163.179 38.8239C163.731 38.2719 164.283 38.0879 165.019 38.0879C166.123 38.0879 167.043 39.0079 167.043 40.1119ZM165.387 41.3999C165.755 41.0319 165.939 40.4799 165.939 40.1119C165.939 39.3759 165.387 39.0079 164.835 39.0079C164.467 39.0079 164.099 39.1919 163.915 39.3759C163.547 39.7439 163.363 40.2959 163.363 40.6639C163.363 41.3999 163.915 41.7679 164.467 41.7679C164.835 41.9519 165.203 41.7679 165.387 41.3999Z" fill="white"/>
<path d="M167.41 41.9519L167.962 41.3999C168.514 41.9519 168.882 41.9519 169.434 41.9519C169.802 41.9519 170.17 41.7679 170.17 41.3999C170.17 41.2159 169.986 41.0319 169.434 40.8479C168.698 40.4799 168.146 40.2959 168.146 39.5599C168.146 38.6399 168.882 38.0879 169.802 38.0879C170.538 38.0879 171.089 38.4559 171.457 38.6399L170.906 39.3759C170.538 39.0079 170.17 38.8239 169.618 38.8239C169.25 38.8239 168.882 39.0079 168.882 39.3759C168.882 39.5599 169.066 39.7439 169.618 39.9279C170.354 40.2959 170.906 40.4799 170.906 41.2159C170.906 42.1359 170.17 42.6879 169.066 42.6879C168.698 42.8719 167.962 42.5039 167.41 41.9519Z" fill="white"/>
<path d="M172.562 41.9524C172.562 41.7684 172.562 41.5844 172.562 41.4004L173.113 39.1924H172.562L172.745 38.2724H173.297L173.665 36.9844H174.769L174.401 38.2724H175.505L175.321 39.1924H174.217L173.665 41.4004V41.5844C173.665 41.7684 173.849 41.9524 174.033 41.9524C174.217 41.9524 174.401 41.9524 174.769 41.7684L174.585 42.6884C174.401 42.8724 174.033 42.8724 173.665 42.8724C172.929 42.6884 172.562 42.3204 172.562 41.9524Z" fill="white"/>
<path d="M176.057 41.584H177.161L176.793 42.688H175.689L176.057 41.584Z" fill="white"/>
<path d="M50.0387 10.304C50.0387 6.624 52.9822 3.68 56.6615 3.68V0C50.9585 0 46.3594 4.6 46.3594 10.304C46.3594 16.008 50.9585 20.608 56.6615 20.608V16.928C52.9822 16.928 50.0387 13.984 50.0387 10.304Z" fill="white"/>
<path d="M152.692 8.648C148.645 7.728 148.093 6.992 148.093 5.704C148.093 4.416 149.381 3.496 151.221 3.496C152.876 3.496 154.532 4.048 156.188 5.152L158.579 2.76C156.372 0.736 153.98 0 151.221 0C147.173 0 144.23 2.392 144.23 5.888C144.23 9.568 146.622 10.856 151.037 11.96C154.716 12.88 155.452 13.616 155.452 14.904C155.452 16.376 153.98 17.296 151.957 17.296C149.749 17.296 147.909 16.56 145.886 14.904L143.494 17.296C145.886 19.32 148.829 20.424 151.957 20.424C156.372 20.424 159.131 18.032 159.131 14.352C159.131 10.856 156.556 9.568 152.692 8.648Z" fill="white"/>
<path d="M163.362 0.367188V4.04719H169.433V20.4232H173.113V4.04719H179V0.367188H163.362Z" fill="white"/>
<path d="M129.329 0V3.68C133.008 3.68 135.952 6.624 135.952 10.304C135.952 13.984 133.008 16.928 129.329 16.928V20.608C135.032 20.608 139.631 16.008 139.631 10.304C139.815 4.6 135.032 0 129.329 0Z" fill="white"/>
<path d="M129.5 0H56V3.68H129.5V0Z" fill="white"/>
<path d="M129.5 16.9277H56V20.6077H129.5V16.9277Z" fill="white"/>
</svg>
