<svg width="262" height="589" viewBox="0 0 262 589" fill="none" xmlns="http://www.w3.org/2000/svg">
<path d="M104.56 116.904C109.749 116.904 113.956 112.697 113.956 107.508C113.956 102.318 109.749 98.1113 104.56 98.1113C99.3705 98.1113 95.1636 102.318 95.1636 107.508C95.1636 112.697 99.3705 116.904 104.56 116.904Z" fill="white"/>
<path d="M171.535 116.904C176.724 116.904 180.931 112.697 180.931 107.508C180.931 102.318 176.724 98.1113 171.535 98.1113C166.345 98.1113 162.138 102.318 162.138 107.508C162.138 112.697 166.345 116.904 171.535 116.904Z" fill="white"/>
<path d="M146.544 106.508H138.147H129.751C129.251 106.508 128.751 106.908 128.751 107.507C128.751 112.705 132.949 116.904 138.147 116.904C143.345 116.904 147.544 112.705 147.544 107.507C147.444 106.908 147.044 106.508 146.544 106.508Z" fill="white"/>
<path d="M46.0827 62.5243C49.1815 66.2229 55.2791 65.923 63.376 59.6254C71.7728 53.0279 78.6702 54.2275 81.0693 57.8261C84.268 62.6243 78.2703 68.522 61.9766 76.7189C46.4825 84.4159 39.0853 102.209 47.0823 108.207C53.4798 113.105 63.376 113.505 78.1704 95.0119C94.3642 74.7197 116.356 59.2256 141.846 55.627C168.636 51.8284 201.423 66.6227 201.423 97.8108C201.423 133.997 172.834 152.99 139.947 155.189C106.759 157.388 105.06 137.296 94.864 135.896C86.1673 134.697 83.1685 140.794 83.5683 144.693C83.9682 149.091 88.4664 160.487 135.249 158.987C187.728 157.288 217.817 128.799 217.817 94.1122C217.817 60.9249 182.63 46.1306 156.34 46.1306C128.251 46.1306 112.657 57.7262 94.6641 74.3198C76.7709 90.8135 62.2765 99.6101 57.6782 95.8116C52.1803 91.2133 62.1765 76.2191 80.0697 70.8211C94.964 66.023 94.6641 56.7265 92.0651 53.1279C88.7663 48.5297 81.869 49.5293 77.0708 50.9288C73.4722 52.0283 60.877 57.8261 57.7782 53.5278C54.3795 48.9295 68.3741 34.2351 84.1681 24.4389C100.562 14.2428 103.961 6.74565 98.3627 1.84752C92.7648 -3.0506 84.7679 2.44729 79.8697 10.6442C75.3715 18.1413 73.2723 30.6365 58.7778 41.0325C45.8827 50.329 42.0842 57.7262 46.0827 62.5243Z" fill="white"/>
<path d="M42.6835 335.62C59.5771 346.916 50.9803 363.31 65.9746 363.31C82.7682 363.31 77.6701 353.014 90.7651 350.615C102.96 348.316 108.658 345.517 104.86 339.419C99.8616 331.622 92.1646 342.118 86.4668 347.616C80.2691 353.514 67.474 352.414 64.1753 345.117C60.2768 336.52 70.8727 328.123 60.0769 317.127C47.6816 304.532 29.6885 327.024 42.6835 335.62Z" fill="white"/>
<path d="M205.521 310.629C183.33 331.521 160.338 354.213 84.2675 372.506C26.8894 386.3 30.9878 415.889 52.5796 414.889C81.0687 413.69 89.6654 379.303 161.338 376.104C195.825 374.605 206.721 381.702 207.12 390.899C207.52 399.495 201.023 401.195 189.227 398.796C178.931 396.596 171.234 396.896 171.534 404.593C171.834 412.49 182.93 411.891 196.225 406.993C214.718 400.195 233.71 409.392 232.811 389.299C231.811 366.408 201.523 357.911 163.937 363.109C125.052 368.507 66.7741 404.693 61.6761 395.697C56.3781 386.3 107.958 368.607 127.251 362.709C140.346 358.711 203.222 338.919 219.816 325.524C235.51 312.928 222.115 295.035 205.521 310.629Z" fill="white"/>
<path d="M120.654 402.893C115.756 407.491 114.656 407.891 105.16 411.09C93.3644 415.088 100.762 427.684 117.755 421.686C133.549 416.188 143.845 415.788 146.144 420.886C148.143 425.185 138.647 428.783 127.251 431.182C115.456 433.681 88.0664 438.479 89.8657 447.176C91.665 455.673 115.456 448.576 124.952 444.677C135.848 440.179 151.342 440.179 152.442 445.177C153.741 450.875 132.749 455.973 118.555 457.972C100.961 460.471 75.6712 467.069 80.1694 477.265C85.0676 488.36 119.854 471.967 136.348 471.967C154.841 471.967 183.53 484.862 184.629 472.866C185.829 459.871 140.546 466.069 127.651 468.568C115.756 470.867 105.56 473.466 105.36 469.068C105.06 462.87 127.251 458.172 142.146 456.173C157.04 454.173 171.335 450.075 169.535 441.978C167.436 432.782 144.345 435.281 128.051 439.679C114.056 443.478 106.759 445.477 105.56 442.878C104.26 440.079 130.95 432.782 143.245 430.682C155.541 428.583 164.037 424.085 161.938 417.088C159.239 408.191 144.045 410.89 133.749 413.989C120.954 417.787 115.956 418.487 114.056 415.588C111.957 412.589 117.455 408.791 126.352 407.691C134.948 406.592 138.747 403.193 135.948 399.394C133.149 395.296 126.152 397.695 120.654 402.893Z" fill="white"/>
<path d="M41.6844 506.053C41.6844 506.053 51.4807 509.852 57.2784 525.246C62.3765 538.541 76.8709 521.247 88.0667 515.35C98.8625 509.652 119.255 509.152 116.456 496.957C113.557 484.262 101.462 492.758 97.1632 499.156C93.4646 504.654 89.3662 514.85 75.5714 513.45C62.4765 512.151 65.8752 497.956 61.6768 490.759C57.2784 483.362 49.1815 480.263 41.3845 486.261C34.0873 491.759 34.987 501.055 41.6844 506.053Z" fill="white"/>
<path d="M135.048 486.062C130.65 488.261 128.951 493.859 130.15 498.957C131.25 503.456 133.749 507.654 154.141 507.654C174.033 507.654 190.527 483.263 214.918 480.964C236.609 478.865 237.309 499.557 217.617 505.455C199.524 510.853 152.941 514.551 123.353 523.248C95.3634 531.545 72.2722 553.137 66.2745 561.333C60.9765 568.631 57.7778 582.325 66.3745 587.124C74.7713 591.822 85.4672 587.723 95.1635 569.53C104.16 552.837 106.259 522.848 164.837 518.75C233.311 513.952 260.7 506.454 253.203 481.564C246.506 459.572 203.522 476.666 184.729 490.161C167.636 502.456 153.441 501.756 149.643 492.56C146.544 484.963 140.546 483.363 135.048 486.062Z" fill="white"/>
<path d="M254.103 281.341C246.706 271.644 214.218 283.14 183.73 249.353C159.939 223.063 185.929 221.464 201.323 209.568C219.016 195.873 213.219 168.484 195.026 161.087C180.031 154.989 166.337 158.888 149.843 162.386C133.249 165.885 105.96 166.085 95.2637 163.986C66.9745 158.488 68.7738 138.395 50.4808 135.596C41.2843 134.197 33.4873 142.794 37.4858 149.991C38.5854 151.99 40.4846 153.889 43.8833 155.389C57.3782 161.387 87.4667 163.186 98.2625 166.685C106.06 169.184 104.06 175.181 98.5624 177.28C81.0691 184.078 35.3866 203.171 35.8864 217.065C36.2862 227.561 56.0787 220.464 66.9745 238.357C77.5704 255.75 80.0695 262.248 87.8665 260.948C94.8638 259.749 99.1622 253.551 100.362 238.657C101.661 223.763 122.853 169.184 162.238 163.986C186.029 160.787 193.326 172.982 195.525 180.979C196.325 183.778 193.626 186.177 190.927 185.177C182.93 182.079 168.136 177.48 156.84 180.879C143.445 184.978 148.743 196.773 159.239 194.074C166.436 192.175 171.135 186.177 179.332 186.177C186.529 186.177 196.125 188.876 194.026 197.673C191.727 206.969 173.134 211.367 163.937 207.169C154.541 202.871 143.845 199.872 141.846 206.669C140.147 212.567 144.545 217.165 158.34 216.665C165.837 216.366 171.235 215.866 174.933 215.366C177.032 215.066 178.232 217.665 176.633 219.064C170.935 224.163 158.739 232.459 134.349 240.156C97.9626 251.652 110.758 253.951 98.5624 266.846C88.6662 277.242 73.6719 274.343 59.1775 276.143C45.9825 277.942 40.8845 286.739 45.8826 291.537C49.981 295.435 55.6788 294.136 66.6746 285.139C76.2709 277.242 107.959 267.346 120.454 271.944C130.45 275.643 126.252 284.04 119.654 287.138C114.856 289.438 109.458 290.637 109.458 297.135C109.458 304.232 124.852 303.032 124.852 314.428C124.852 324.024 112.857 323.924 109.258 315.728C106.06 308.33 96.0634 300.633 87.8665 307.131C79.6696 313.728 88.4663 322.025 97.2629 323.525C109.258 325.624 110.958 333.221 121.754 332.521C131.85 331.921 132.25 319.526 141.046 316.727C150.143 313.828 156.94 319.526 164.437 322.425C173.234 325.824 177.832 315.428 172.034 313.029C166.337 310.629 164.337 310.23 157.84 311.529C151.742 312.829 154.141 307.631 157.24 303.632C160.939 298.934 163.138 288.738 154.041 283.34C145.045 277.942 162.338 272.244 160.139 263.947C157.84 255.451 147.844 264.247 138.647 263.048C130.05 261.948 126.152 256.45 128.751 249.353C132.05 240.156 145.644 239.457 159.439 242.456C173.934 245.654 184.03 256.75 192.327 267.146C200.923 277.942 213.718 294.136 232.911 297.834C252.703 301.733 260.5 289.638 254.103 281.341ZM102.661 195.573C99.1622 200.672 93.6643 206.969 91.4651 215.866C89.3659 224.262 90.6654 240.856 84.068 243.155C77.3705 245.554 71.5727 238.157 64.3755 231.26C57.5781 224.762 54.0794 223.863 54.0794 215.766C54.0794 205.67 83.4682 186.277 92.7646 182.678C101.661 179.28 108.958 186.477 102.661 195.573Z" fill="white"/>
<path d="M261.1 140.194V137.195H245.206V140.194H250.304V146.692H253.203V140.194H261.1Z" fill="white"/>
<path d="M261.1 146.691H245.206V149.59H261.1V146.691Z" fill="white"/>
<path d="M250.304 125.7V130.099C248.905 129.199 248.005 127.5 248.005 125.7C248.005 124.201 248.605 122.901 249.505 122.002C250.504 121.002 251.804 120.502 253.203 120.502C256.102 120.502 258.501 122.901 258.501 125.8C258.501 127.3 257.902 128.599 257.002 129.499L259.101 131.598C260.601 130.099 261.5 128.1 261.5 125.8C261.5 121.302 257.802 117.604 253.303 117.604C251.004 117.604 249.005 118.503 247.506 120.003C246.006 121.502 245.106 123.501 245.106 125.8C245.106 130.299 248.805 133.997 253.303 133.997V125.8H250.304V125.7Z" fill="white"/>
<path d="M227.813 125.701C227.813 124.201 228.413 122.902 229.312 122.002C230.312 121.003 231.612 120.503 233.011 120.503C234.41 120.503 235.81 121.103 236.71 122.002C237.709 123.002 238.309 124.301 238.309 125.701C238.309 127.2 237.709 128.5 236.81 129.399L238.909 131.499C240.408 129.999 241.308 128 241.308 125.701C241.308 123.402 240.408 121.402 238.909 119.903C237.409 118.404 235.41 117.504 233.111 117.504C230.812 117.504 228.813 118.404 227.313 119.903C225.814 121.402 224.914 123.402 224.914 125.701C224.914 128 225.814 129.999 227.313 131.499C227.913 130.899 228.613 130.199 229.412 129.399C228.413 128.5 227.813 127.2 227.813 125.701Z" fill="white"/>
<path d="M231.012 160.887C229.212 160.887 227.813 159.388 227.813 157.588C227.813 155.789 229.312 154.29 231.012 154.29H241.008V151.391H231.012C227.613 151.391 224.814 154.19 224.814 157.588C224.814 160.987 227.613 163.786 231.012 163.786H241.008V160.887H231.012Z" fill="white"/>
<path d="M233.81 178.481C234.51 178.981 235.41 179.181 236.309 179.181C238.908 179.181 241.008 177.081 241.008 174.482V168.385H225.114V175.882C225.114 178.481 227.213 180.58 229.812 180.58C231.511 180.68 232.911 179.88 233.81 178.481ZM238.109 171.384V174.482C238.109 175.482 237.309 176.282 236.309 176.282C235.31 176.282 234.51 175.482 234.51 174.482V171.384H238.109ZM228.013 175.982V171.384H231.611V175.982C231.611 176.981 230.812 177.781 229.812 177.781C228.812 177.781 228.013 176.981 228.013 175.982Z" fill="white"/>
<path d="M241.008 140.295V137.396H225.114V147.892H228.013V140.295H241.008Z" fill="white"/>
<path d="M235.51 185.477L236.01 186.076C235.61 186.276 235.41 186.576 235.41 186.976C235.41 187.276 235.51 187.476 235.71 187.676C235.91 187.876 236.11 187.976 236.71 188.076L239.409 188.775V189.575L236.51 188.775C235.81 188.575 235.51 188.475 235.11 188.076C234.81 187.776 234.61 187.276 234.61 186.776C234.61 186.276 235.01 185.776 235.51 185.477Z" fill="white"/>
<path d="M235.71 189.975C235.91 189.975 236.11 190.075 236.31 190.075L238.209 190.574V191.374L236.21 190.874C236.11 190.874 235.91 190.874 235.81 190.874C235.41 190.874 235.21 191.074 235.21 191.474C235.21 191.974 235.61 192.274 236.11 192.474L238.109 192.973V193.773L234.61 192.873V191.974L235.11 192.074C234.81 191.774 234.61 191.474 234.61 190.974C234.61 190.474 235.01 189.975 235.71 189.975Z" fill="white"/>
<path d="M235.21 193.873L235.71 194.373C235.31 194.773 235.21 195.173 235.21 195.472C235.21 195.772 235.41 196.072 235.61 196.072C235.81 196.072 235.91 195.872 236.01 195.572C236.21 194.973 236.509 194.573 237.009 194.573C237.709 194.573 238.209 195.073 238.209 195.972C238.209 196.572 238.009 197.072 237.709 197.272L237.209 196.872C237.509 196.572 237.609 196.272 237.609 195.872C237.609 195.572 237.409 195.372 237.209 195.372C237.009 195.372 236.909 195.572 236.709 195.972C236.509 196.472 236.21 196.972 235.71 196.972C235.01 196.972 234.51 196.372 234.51 195.572C234.61 194.973 234.81 194.273 235.21 193.873Z" fill="white"/>
<path d="M235.31 197.873C235.41 197.873 235.61 197.873 235.71 197.973L237.509 198.473V197.973L238.209 198.173V198.573L239.209 198.873V199.672L238.209 199.372V200.272L237.509 200.072V199.173L235.81 198.673C235.71 198.673 235.71 198.673 235.61 198.673C235.41 198.673 235.31 198.773 235.31 199.073C235.31 199.273 235.31 199.372 235.41 199.572L234.71 199.372C234.61 199.173 234.61 198.973 234.61 198.673C234.61 198.273 234.91 197.873 235.31 197.873Z" fill="white"/>
<path d="M235.61 202.771C236.01 202.771 236.21 202.871 236.41 203.071C236.71 203.371 236.81 203.771 236.81 204.271C236.81 204.671 236.71 205.071 236.61 205.37H236.71C236.81 205.37 236.909 205.37 237.009 205.37C237.309 205.37 237.509 205.171 237.509 204.571C237.509 204.171 237.409 203.871 237.309 203.571L238.009 203.471C238.109 203.871 238.209 204.271 238.209 204.671C238.209 205.57 237.809 206.07 237.109 206.07C236.909 206.07 236.81 206.07 236.61 205.97L234.61 205.47V204.671L235.11 204.771C234.81 204.471 234.61 204.071 234.61 203.571C234.61 203.171 235.01 202.771 235.61 202.771ZM236.01 205.171H236.21C236.31 204.971 236.31 204.671 236.31 204.371C236.31 204.071 236.21 203.871 236.11 203.671C236.01 203.571 235.81 203.471 235.71 203.471C235.41 203.471 235.21 203.671 235.21 204.071C235.21 204.571 235.61 205.071 236.01 205.171Z" fill="white"/>
<path d="M238.209 209.566V210.366L235.81 210.466L238.209 211.866V212.565L235.81 212.665L238.209 214.065V214.864L234.71 212.765V212.065L237.109 211.965L234.71 210.566V209.866L238.209 209.566Z" fill="white"/>
<path d="M239.608 216.164V216.964L237.809 216.464C238.109 216.764 238.309 217.064 238.309 217.564C238.309 218.164 237.909 218.663 237.209 218.663C237.009 218.663 236.809 218.563 236.609 218.563L234.71 218.064V217.264L236.709 217.764C236.809 217.764 237.009 217.864 237.109 217.864C237.509 217.864 237.709 217.664 237.709 217.264C237.709 216.764 237.309 216.464 236.809 216.264L234.81 215.765V214.965L239.608 216.164Z" fill="white"/>
<path d="M238.209 220.163V220.963L234.71 220.063V219.264L238.209 220.163ZM239.508 220.463V221.363L238.708 221.163V220.263L239.508 220.463Z" fill="white"/>
<path d="M235.21 221.162L235.71 221.662C235.31 222.062 235.21 222.462 235.21 222.762C235.21 223.061 235.41 223.361 235.61 223.361C235.81 223.361 235.91 223.161 236.01 222.861C236.21 222.262 236.509 221.862 237.009 221.862C237.709 221.862 238.209 222.362 238.209 223.261C238.209 223.861 238.009 224.361 237.709 224.561L237.209 224.161C237.509 223.861 237.609 223.561 237.609 223.161C237.609 222.861 237.409 222.662 237.209 222.662C237.009 222.662 236.909 222.861 236.709 223.261C236.509 223.761 236.21 224.261 235.71 224.261C235.01 224.261 234.51 223.661 234.51 222.861C234.61 222.162 234.81 221.562 235.21 221.162Z" fill="white"/>
<path d="M235.31 225.86L233.61 225.46V224.66L238.209 225.86V226.659L237.709 226.559C238.009 226.859 238.209 227.259 238.209 227.659C238.209 228.459 237.609 229.058 236.709 229.058C236.109 229.058 235.51 228.759 235.11 228.459C234.71 228.059 234.51 227.659 234.51 227.159C234.61 226.36 234.91 226.06 235.31 225.86ZM235.71 227.659C236.009 227.959 236.309 228.059 236.809 228.059C237.309 228.059 237.709 227.759 237.709 227.259C237.709 226.959 237.609 226.659 237.309 226.459C237.009 226.16 236.709 226.06 236.309 226.06C235.81 226.06 235.41 226.459 235.41 226.959C235.31 227.159 235.41 227.459 235.71 227.659Z" fill="white"/>
<path d="M236.21 230.559C235.71 230.559 235.31 230.859 235.31 231.459C235.31 231.759 235.41 232.059 235.61 232.359L235.11 232.759C234.81 232.459 234.61 231.959 234.61 231.359C234.61 230.36 235.21 229.76 236.11 229.76C236.71 229.76 237.209 229.96 237.609 230.36C238.009 230.759 238.209 231.159 238.209 231.759C238.209 232.659 237.609 233.158 236.81 233.158C236.61 233.158 236.31 233.059 236.11 232.959V230.559H236.21ZM236.71 230.659V232.459C236.81 232.459 236.81 232.459 236.909 232.459C237.309 232.459 237.609 232.259 237.609 231.759C237.609 231.459 237.509 231.159 237.309 230.959C237.109 230.859 236.909 230.659 236.71 230.659Z" fill="white"/>
<path d="M238.209 234.659V235.459L237.409 235.259C238.009 235.659 238.309 236.059 238.309 236.758L237.409 236.558C237.409 235.859 236.909 235.259 236.009 234.959L234.71 234.659V233.859L238.209 234.659Z" fill="white"/>
<path d="M235.61 236.458V237.358L234.71 237.158V236.258L235.61 236.458Z" fill="white"/>
<path d="M232.211 187.176V187.976L227.513 186.776V185.977L232.211 187.176Z" fill="white"/>
<path d="M232.411 191.575V192.374L230.612 191.874C230.911 192.174 231.111 192.474 231.111 192.974C231.111 193.574 230.711 194.074 230.012 194.074C229.812 194.074 229.612 193.974 229.412 193.974L227.513 193.474V192.674L229.512 193.174C229.612 193.174 229.812 193.274 229.912 193.274C230.312 193.274 230.512 193.074 230.512 192.674C230.512 192.174 230.112 191.874 229.612 191.675L227.613 191.175V190.375L232.411 191.575Z" fill="white"/>
<path d="M229.012 195.673C228.512 195.673 228.112 195.973 228.112 196.572C228.112 196.872 228.212 197.172 228.412 197.472L227.912 197.872C227.613 197.572 227.413 197.072 227.413 196.472C227.413 195.473 228.012 194.873 228.912 194.873C229.512 194.873 230.012 195.073 230.411 195.473C230.811 195.873 231.011 196.273 231.011 196.872C231.011 197.772 230.411 198.272 229.612 198.272C229.412 198.272 229.112 198.172 228.912 198.072V195.673H229.012ZM229.512 195.673V197.472C229.612 197.472 229.612 197.472 229.712 197.472C230.112 197.472 230.411 197.272 230.411 196.772C230.411 196.472 230.311 196.173 230.112 195.973C229.912 195.873 229.712 195.773 229.512 195.673Z" fill="white"/>
<path d="M228.412 198.871C228.812 198.871 229.012 198.971 229.212 199.171C229.512 199.471 229.612 199.871 229.612 200.371C229.612 200.77 229.512 201.17 229.412 201.47H229.512C229.612 201.47 229.712 201.47 229.812 201.47C230.112 201.47 230.311 201.27 230.311 200.67C230.311 200.271 230.212 199.971 230.112 199.671L230.811 199.571C230.911 199.971 231.011 200.371 231.011 200.77C231.011 201.67 230.611 202.17 229.912 202.17C229.712 202.17 229.612 202.17 229.412 202.07L227.413 201.57V200.97L227.912 201.07C227.613 200.77 227.413 200.371 227.413 199.871C227.413 199.371 227.812 198.871 228.412 198.871ZM228.812 201.27H229.012C229.112 201.07 229.112 200.77 229.112 200.47C229.112 200.171 229.012 199.971 228.912 199.771C228.812 199.671 228.612 199.571 228.512 199.571C228.212 199.571 228.012 199.771 228.012 200.171C228.012 200.77 228.412 201.17 228.812 201.27Z" fill="white"/>
<path d="M231.011 203.87V204.67L230.212 204.47C230.811 204.87 231.111 205.269 231.111 205.969L230.212 205.769C230.212 205.07 229.712 204.47 228.812 204.17L227.513 203.87V203.07L231.011 203.87Z" fill="white"/>
<path d="M231.011 209.068V209.867L227.513 208.968V208.168L231.011 209.068ZM232.311 209.368V210.267L231.511 210.067V209.168L232.311 209.368Z" fill="white"/>
<path d="M228.112 210.566C228.212 210.566 228.412 210.566 228.512 210.666L230.311 211.166V210.766L231.011 210.966V211.366L232.011 211.666V212.466L231.011 212.166V213.065L230.311 212.866V211.966L228.612 211.466C228.512 211.466 228.512 211.466 228.412 211.466C228.212 211.466 228.112 211.566 228.112 211.866C228.112 212.066 228.112 212.166 228.212 212.366L227.513 212.166C227.413 211.966 227.413 211.766 227.413 211.466C227.413 210.866 227.712 210.566 228.112 210.566Z" fill="white"/>
<path d="M231.011 216.364V217.164L227.513 216.265V215.465L231.011 216.364ZM232.311 216.664V217.564L231.511 217.364V216.464L232.311 216.664Z" fill="white"/>
<path d="M231.011 218.464V219.263L230.612 219.163C230.911 219.463 231.111 219.763 231.111 220.263C231.111 220.863 230.711 221.363 230.012 221.363C229.812 221.363 229.612 221.263 229.412 221.263L227.513 220.763V219.963L229.512 220.463C229.612 220.463 229.812 220.563 229.912 220.563C230.312 220.563 230.512 220.363 230.512 219.963C230.512 219.463 230.112 219.163 229.612 218.964L227.613 218.464V217.664L231.011 218.464Z" fill="white"/>
<path d="M231.011 224.961V225.76L230.612 225.66C230.911 225.96 231.111 226.26 231.111 226.66C231.111 227.16 230.811 227.46 230.412 227.66C230.811 227.959 231.111 228.459 231.111 228.959C231.111 229.559 230.711 229.959 230.012 229.959C229.812 229.959 229.612 229.859 229.412 229.859L227.513 229.359V228.559L229.512 229.059C229.612 229.059 229.812 229.059 229.912 229.059C230.312 229.059 230.512 228.859 230.512 228.459C230.512 228.059 230.112 227.66 229.612 227.56L227.613 227.06V226.26L229.612 226.76C229.712 226.76 229.912 226.76 230.012 226.76C230.412 226.76 230.612 226.56 230.612 226.16C230.612 225.76 230.212 225.36 229.712 225.26L227.713 224.761V223.961L231.011 224.961Z" fill="white"/>
<path d="M231.011 230.959V231.758L228.412 232.058L231.011 233.558V234.457L227.413 232.158C226.713 231.658 226.413 231.258 226.413 230.759C226.413 230.459 226.513 230.159 226.613 229.959L227.213 230.359C227.113 230.459 227.013 230.659 227.013 230.859C227.013 231.059 227.113 231.258 227.413 231.458L231.011 230.959Z" fill="white"/>
<path d="M226.913 236.457L227.513 236.857C227.213 237.257 227.113 237.657 227.113 238.156C227.113 238.556 227.213 238.856 227.413 239.056C227.613 239.256 227.813 239.356 228.113 239.456L228.313 239.556C228.013 239.156 227.813 238.856 227.813 238.356C227.813 237.657 228.313 237.057 229.112 237.057C229.712 237.057 230.212 237.257 230.612 237.657C231.012 238.056 231.212 238.456 231.212 238.956C231.212 239.656 230.912 239.956 230.512 240.156L231.112 240.356V241.155L228.213 240.356C227.613 240.156 227.313 240.056 227.013 239.756C226.713 239.456 226.513 238.956 226.513 238.356C226.413 237.557 226.613 236.957 226.913 236.457ZM228.812 239.456C229.012 239.656 229.312 239.856 229.612 239.856C230.012 239.856 230.412 239.556 230.412 239.056C230.412 238.756 230.312 238.456 230.112 238.256C229.912 238.056 229.612 237.856 229.212 237.856C228.712 237.856 228.413 238.256 228.413 238.656C228.413 238.956 228.612 239.256 228.812 239.456Z" fill="white"/>
<path d="M232.411 242.655V243.454L230.612 242.955C230.911 243.254 231.111 243.554 231.111 244.054C231.111 244.654 230.711 245.154 230.012 245.154C229.812 245.154 229.612 245.054 229.412 245.054L227.513 244.554V243.754L229.512 244.254C229.612 244.254 229.812 244.354 229.912 244.354C230.312 244.354 230.512 244.154 230.512 243.754C230.512 243.254 230.112 242.955 229.612 242.755L227.613 242.255V241.455L232.411 242.655Z" fill="white"/>
<path d="M229.512 249.651C229.012 249.651 228.412 249.451 228.112 249.052C227.713 248.652 227.513 248.152 227.513 247.652C227.513 246.652 228.212 246.053 229.112 246.053C229.612 246.053 230.212 246.253 230.612 246.652C231.011 247.052 231.211 247.552 231.211 248.052C231.111 248.952 230.412 249.651 229.512 249.651ZM228.412 248.352C228.712 248.652 229.112 248.752 229.412 248.752C230.012 248.752 230.312 248.352 230.312 247.852C230.312 247.552 230.212 247.252 230.012 247.052C229.712 246.752 229.312 246.652 229.012 246.652C228.412 246.652 228.112 247.052 228.112 247.552C228.112 247.952 228.212 248.152 228.412 248.352Z" fill="white"/>
<path d="M228.012 250.051L228.512 250.551C228.112 250.95 228.012 251.35 228.012 251.65C228.012 251.95 228.212 252.25 228.412 252.25C228.612 252.25 228.712 252.05 228.812 251.75C229.012 251.15 229.312 250.751 229.812 250.751C230.511 250.751 231.011 251.25 231.011 252.15C231.011 252.75 230.811 253.25 230.511 253.449L230.011 253.05C230.311 252.75 230.411 252.45 230.411 252.05C230.411 251.75 230.211 251.55 230.011 251.55C229.812 251.55 229.712 251.75 229.512 252.15C229.312 252.65 229.012 253.15 228.512 253.15C227.812 253.15 227.312 252.55 227.312 251.75C227.412 251.05 227.612 250.451 228.012 250.051Z" fill="white"/>
<path d="M228.112 254.051C228.212 254.051 228.412 254.051 228.512 254.151L230.311 254.651V254.251L231.011 254.451V254.85L232.011 255.15V255.95L231.011 255.65V256.55L230.311 256.35V255.45L228.612 254.95C228.512 254.95 228.512 254.95 228.412 254.95C228.212 254.95 228.112 255.05 228.112 255.35C228.112 255.55 228.112 255.65 228.212 255.85L227.513 255.65C227.413 255.45 227.413 255.25 227.413 254.95C227.413 254.351 227.712 254.051 228.112 254.051Z" fill="white"/>
<path d="M228.413 256.848V257.748L227.513 257.548V256.648L228.413 256.848Z" fill="white"/>
<path d="M253.203 157.19C256.102 157.19 258.501 159.589 258.501 162.488H261.4C261.4 157.99 257.701 154.291 253.203 154.291C248.705 154.291 245.006 157.99 245.006 162.488H247.905C247.905 159.489 250.304 157.19 253.203 157.19Z" fill="white"/>
<path d="M254.602 238.259C255.402 235.06 255.902 234.56 257.001 234.56C258.101 234.56 258.801 235.56 258.801 237.059C258.801 238.358 258.301 239.658 257.401 240.957L259.4 242.957V242.857C260.7 241.157 261.4 239.258 261.4 237.059C261.4 233.86 259.5 231.561 256.702 231.561C253.803 231.561 252.703 233.46 251.903 236.859C251.204 239.858 250.604 240.358 249.604 240.358C248.505 240.358 247.705 239.258 247.705 237.659C247.705 235.959 248.305 234.46 249.604 232.861L247.705 230.861L247.605 230.961C245.906 232.861 245.106 235.16 245.106 237.559C245.106 241.057 247.005 243.257 249.904 243.257C252.703 243.357 253.803 241.357 254.602 238.259Z" fill="white"/>
<path d="M261.1 246.855H258.201V251.554H245.206V254.453H258.201V259.151H261.1V246.855Z" fill="white"/>
<path d="M261.4 219.865H258.501C258.501 222.764 256.102 225.163 253.203 225.163C250.304 225.163 247.905 222.764 247.905 219.865H245.006C245.006 224.364 248.705 228.062 253.203 228.062C257.701 228.062 261.4 224.364 261.4 219.865Z" fill="white"/>
<path d="M261.378 219.927V162.449H258.479V219.927H261.378Z" fill="white"/>
<path d="M247.937 219.874V162.396H245.038V219.874H247.937Z" fill="white"/>
</svg>
