<svg width="236" height="61" viewBox="0 0 236 61" fill="none" xmlns="http://www.w3.org/2000/svg">
<path d="M37.5735 0.488281H32.7253V27.0841H37.5735V18.5441H48.482V13.6642H37.5735V0.488281Z" fill="white"/>
<path d="M53.3305 0.488281H48.4823V27.0841H53.3305V0.488281Z" fill="white"/>
<path d="M13.575 18.5433H20.8473C19.3928 20.9832 16.4839 22.4472 13.575 22.4472C11.1509 22.4472 8.96917 21.4712 7.2723 19.7633C5.81784 18.2993 4.8482 16.1033 4.8482 13.6633C4.8482 8.78334 8.72676 4.87937 13.575 4.87937C15.9991 4.87937 18.1807 5.85536 19.8776 7.56335L23.2714 4.14737C20.8473 1.70739 17.4535 0.243402 13.575 0.243402C6.06025 -0.000596538 0 6.09936 0 13.6633C0 17.3233 1.45446 20.7392 3.87856 23.4232C6.30266 25.8632 9.6964 27.3272 13.575 27.3272C21.0897 27.3272 27.1499 21.2272 27.1499 13.6633H13.575V18.5433Z" fill="white"/>
<path d="M13.575 56.1198C11.1509 56.1198 8.96919 55.1438 7.27232 53.4359C5.81786 51.9719 4.84822 49.7759 4.84822 47.3359C4.84822 44.8959 5.81786 42.6999 7.51473 41.236C9.2116 39.528 11.3933 38.552 13.8174 38.552C16.2415 38.552 18.4232 39.528 20.12 41.236L23.5138 37.82C21.0897 35.38 17.6959 33.916 13.8174 33.916C9.93883 33.916 6.54509 35.38 4.12099 37.82C1.69689 40.26 0.242432 43.6759 0.242432 47.3359C0.242432 50.9959 1.69689 54.4118 4.12099 57.0958C6.54509 59.5358 9.93883 60.9998 13.8174 60.9998C17.6959 60.9998 21.0897 59.5358 23.5138 57.0958C22.5441 56.1198 21.3321 54.8998 20.12 53.6799C18.1808 55.1438 15.9991 56.1198 13.575 56.1198Z" fill="white"/>
<path d="M72.2387 50.752C72.2387 53.68 69.8146 56.12 66.9057 56.12C63.9968 56.12 61.5727 53.68 61.5727 50.752V34.1602H56.7245V50.752C56.7245 56.364 61.3303 60.9999 66.9057 60.9999C72.4811 60.9999 77.0869 56.364 77.0869 50.752V34.1602H72.2387V50.752Z" fill="white"/>
<path d="M101.57 46.1161C102.297 44.8961 102.782 43.4321 102.782 41.9681C102.782 37.5761 99.1461 34.1602 95.0251 34.1602H84.8439V60.7559H97.4492C101.813 60.7559 105.206 57.34 105.206 52.948C105.206 50.02 103.752 47.58 101.57 46.1161ZM89.6921 39.0401H95.0251C96.722 39.0401 97.934 40.2601 97.934 41.9681C97.934 43.6761 96.722 44.8961 95.0251 44.8961H89.6921V39.0401ZM97.4492 55.632H89.6921V49.776H97.4492C99.1461 49.776 100.358 50.996 100.358 52.704C100.358 54.412 99.1461 55.632 97.4492 55.632Z" fill="white"/>
<path d="M37.8158 34.1602H32.9677V60.5119H50.6636V55.632H37.8158V34.1602Z" fill="white"/>
<path d="M113.206 43.1954L114.175 42.4634C114.66 43.1954 114.903 43.4394 115.63 43.4394C116.115 43.4394 116.6 43.1954 116.842 42.9514C117.084 42.7074 117.327 42.2194 117.569 41.2434L118.781 36.6074H120.236L119.024 41.4874C118.781 42.7074 118.539 43.1954 117.812 43.6834C117.327 44.1714 116.6 44.4154 115.63 44.4154C114.66 44.6594 113.691 44.1714 113.206 43.1954Z" fill="white"/>
<path d="M120.72 42.9467C120.72 42.7027 120.72 42.2147 120.962 41.9707L121.932 38.7987H123.386L122.417 41.9707C122.417 42.2147 122.417 42.4587 122.417 42.4587C122.417 42.9466 122.902 43.4346 123.386 43.4346C124.114 43.4346 124.841 42.9467 125.083 41.9707L126.053 38.5547H127.507L126.053 44.4106H124.599L124.841 43.6786C124.356 44.1666 123.871 44.6546 123.144 44.6546C121.447 44.6546 120.72 43.9226 120.72 42.9467Z" fill="white"/>
<path d="M127.266 43.6786L127.993 42.9467C128.72 43.6786 129.205 43.6786 129.932 43.6786C130.417 43.6786 130.902 43.4346 130.902 42.9467C130.902 42.7027 130.659 42.4587 129.932 42.2147C128.962 41.7267 128.235 41.4827 128.235 40.5067C128.235 39.2867 129.205 38.5547 130.417 38.5547C131.386 38.5547 132.114 39.0427 132.599 39.2867L131.871 40.2627C131.386 39.7747 130.902 39.5307 130.174 39.5307C129.69 39.5307 129.205 39.7747 129.205 40.2627C129.205 40.5067 129.447 40.7507 130.174 40.9947C131.144 41.4827 131.871 41.7267 131.871 42.7027C131.871 43.9226 130.902 44.6546 129.447 44.6546C128.962 44.6546 127.993 44.4106 127.266 43.6786Z" fill="white"/>
<path d="M133.811 43.4336C133.811 43.1896 133.811 42.9456 133.811 42.7016L134.538 39.7737H133.811L134.053 38.5537H134.781L135.265 36.8457H136.72L136.235 38.5537H137.689L137.447 39.7737H135.993L135.265 42.7016V42.9456C135.265 43.1896 135.508 43.4336 135.75 43.4336C135.993 43.4336 136.235 43.4336 136.72 43.1896L136.477 44.4096C136.235 44.6536 135.75 44.6536 135.265 44.6536C134.296 44.6536 133.811 44.1656 133.811 43.4336Z" fill="white"/>
<path d="M141.81 43.1906C141.81 42.7027 142.052 42.2147 142.295 41.7267C142.779 41.2387 143.507 40.9947 144.234 40.9947C144.961 40.9947 145.446 41.2387 145.931 41.2387C145.931 40.9947 145.931 40.9947 145.931 40.7507C145.931 40.2627 145.446 39.7747 144.719 39.7747C144.234 39.7747 143.507 40.0187 143.022 40.0187L143.264 39.0427C143.749 38.7987 144.476 38.5547 145.446 38.5547C146.9 38.5547 147.87 39.2867 147.87 40.2627C147.87 40.5067 147.87 40.7507 147.628 41.2387L146.658 44.4106H145.446L145.688 43.6786C145.204 44.1666 144.476 44.6546 143.749 44.6546C142.779 44.6546 141.81 44.1666 141.81 43.1906ZM145.931 42.4587V42.2147C145.446 41.9707 144.961 41.9707 144.476 41.9707C143.992 41.9707 143.507 42.2147 143.264 42.4587C143.022 42.7027 143.022 42.9467 143.022 43.1906C143.022 43.6786 143.507 43.9226 143.992 43.9226C144.961 43.6786 145.688 43.1906 145.931 42.4587Z" fill="white"/>
<path d="M153.203 38.7987H154.658V42.7027L157.082 38.5547H158.294L158.536 42.7027L160.718 38.7987H162.172L158.779 44.6546H157.567L157.324 40.7507L154.9 44.6546H153.688L153.203 38.7987Z" fill="white"/>
<path d="M164.355 36.3574H165.809L164.839 39.5294C165.324 39.0414 165.809 38.5534 166.536 38.5534C167.506 38.5534 168.233 39.2854 168.233 40.2614C168.233 40.5054 168.233 40.9934 167.991 41.2374L167.263 44.6534H165.809L166.779 41.4814C166.779 41.2374 166.779 40.9934 166.779 40.9934C166.779 40.5054 166.294 40.0174 165.809 40.0174C165.082 40.0174 164.354 40.5054 164.112 41.4814L163.142 44.8974H161.688L164.355 36.3574Z" fill="white"/>
<path d="M170.899 38.8034H172.353L170.899 44.6594H169.445L170.899 38.8034ZM171.626 36.6074H173.081L172.838 37.8274H171.384L171.626 36.6074Z" fill="white"/>
<path d="M172.596 43.6786L173.323 42.9467C174.05 43.6786 174.535 43.6786 175.262 43.6786C175.747 43.6786 176.232 43.4346 176.232 42.9467C176.232 42.7027 175.989 42.4587 175.262 42.2147C174.293 41.7267 173.565 41.4827 173.565 40.5067C173.565 39.2867 174.535 38.5547 175.747 38.5547C176.717 38.5547 177.444 39.0427 177.929 39.2867L177.201 40.2627C176.717 39.7747 176.232 39.5307 175.505 39.5307C175.02 39.5307 174.535 39.7747 174.535 40.2627C174.535 40.5067 174.777 40.7507 175.505 40.9947C176.474 41.4827 177.201 41.7267 177.201 42.7027C177.201 43.9226 176.232 44.6546 174.777 44.6546C174.293 44.6546 173.323 44.4106 172.596 43.6786Z" fill="white"/>
<path d="M180.353 43.4346L179.626 46.3626H178.172L180.111 38.7987H181.565L181.323 39.5307C181.808 39.0427 182.535 38.5547 183.262 38.5547C184.474 38.5547 185.444 39.5307 185.444 40.9947C185.444 41.9707 184.959 42.9467 184.474 43.6786C183.989 44.1666 183.02 44.6546 182.292 44.6546C181.323 44.6546 180.838 44.1666 180.353 43.4346ZM183.505 42.9467C183.989 42.4587 184.232 41.9707 184.232 41.2387C184.232 40.2627 183.747 39.7747 182.777 39.7747C182.292 39.7747 181.808 40.0187 181.323 40.5067C180.838 40.9947 180.596 41.4827 180.596 42.2147C180.596 43.1906 181.323 43.6786 182.05 43.6786C182.777 43.4346 183.262 43.4346 183.505 42.9467Z" fill="white"/>
<path d="M188.353 42.2148C188.353 43.1908 188.838 43.6788 189.808 43.6788C190.293 43.6788 190.778 43.4348 191.262 43.1908L191.99 44.1668C191.505 44.6548 190.778 44.8988 189.808 44.8988C188.111 44.8988 187.141 43.9228 187.141 42.2148C187.141 41.2388 187.626 40.2628 188.111 39.7748C188.596 39.2868 189.565 38.7988 190.535 38.7988C191.99 38.7988 192.959 39.7748 192.959 40.9948C192.959 41.4828 192.959 41.7268 192.717 42.2148H188.353ZM188.353 41.2388H191.505C191.505 41.2388 191.505 40.9948 191.505 40.7508C191.505 40.0188 191.262 39.5308 190.293 39.5308C189.808 39.5308 189.323 39.7748 188.838 40.0188C188.596 40.5068 188.596 40.7508 188.353 41.2388Z" fill="white"/>
<path d="M195.14 38.7987H196.352L196.11 40.0187C196.837 39.0427 197.564 38.5547 198.534 38.5547L198.049 40.0187C196.837 40.0187 195.868 40.7507 195.383 42.4587L194.898 44.6546H193.443L195.14 38.7987Z" fill="white"/>
<path d="M198.049 42.9434H199.503L199.018 44.4074H197.564L198.049 42.9434Z" fill="white"/>
<path d="M115.872 48.8047H117.327L115.145 56.6126H113.933L115.872 48.8047Z" fill="white"/>
<path d="M123.387 48.5586H124.841L124.114 51.4866C124.599 50.9986 125.084 50.5106 125.811 50.5106C126.78 50.5106 127.508 51.2426 127.508 52.2186C127.508 52.4626 127.508 52.9506 127.265 53.1946L126.538 56.3665H125.084L126.053 53.1946C126.053 52.9506 126.053 52.7066 126.053 52.7066C126.053 52.2186 125.568 51.7306 125.084 51.7306C124.356 51.7306 123.629 52.2186 123.387 53.1946L122.417 56.6105H121.205L123.387 48.5586Z" fill="white"/>
<path d="M130.175 54.1679C130.175 55.1439 130.66 55.6319 131.63 55.6319C132.114 55.6319 132.599 55.3879 133.084 55.1439L133.811 56.1199C133.326 56.6079 132.599 56.8519 131.63 56.8519C129.933 56.8519 128.963 55.8759 128.963 54.1679C128.963 53.1919 129.448 52.2159 129.933 51.7279C130.418 51.24 131.387 50.752 132.357 50.752C133.811 50.752 134.781 51.7279 134.781 52.9479C134.781 53.4359 134.781 53.6799 134.539 54.1679H130.175ZM130.175 53.1919H133.326C133.326 53.1919 133.326 52.9479 133.326 52.7039C133.326 51.9719 133.084 51.4839 132.114 51.4839C131.63 51.4839 131.145 51.7279 130.66 51.9719C130.66 52.4599 130.418 52.9479 130.175 53.1919Z" fill="white"/>
<path d="M135.507 55.1477C135.507 54.6597 135.749 54.1717 135.992 53.6837C136.477 53.1957 137.204 52.9517 137.931 52.9517C138.658 52.9517 139.143 53.1957 139.628 53.1957C139.628 52.9517 139.628 52.9517 139.628 52.7077C139.628 52.2197 139.143 51.7317 138.416 51.7317C137.931 51.7317 137.204 51.9757 136.719 51.9757L136.477 50.9997C136.962 50.7557 137.689 50.5117 138.658 50.5117C140.113 50.5117 141.082 51.2437 141.082 52.2197C141.082 52.4637 141.082 52.7077 140.84 53.1957L139.87 56.3677H138.658L138.901 55.6357C138.416 56.1237 137.689 56.6117 136.962 56.6117C136.234 56.6117 135.507 56.1237 135.507 55.1477ZM139.628 54.4157V54.1717C139.143 53.9277 138.658 53.9277 138.174 53.9277C137.689 53.9277 137.204 54.1717 136.962 54.4157C136.719 54.6597 136.719 54.9037 136.719 55.1477C136.719 55.6357 137.204 55.8797 137.689 55.8797C138.658 55.8797 139.386 55.1477 139.628 54.4157Z" fill="white"/>
<path d="M143.749 50.7557H145.204L144.961 51.9757C145.689 50.9997 146.416 50.5117 147.386 50.5117L146.901 51.9757C145.689 51.9757 144.719 52.7077 144.234 54.4157L143.749 56.6117H142.295L143.749 50.7557Z" fill="white"/>
<path d="M152.476 50.7546H153.93L152.476 56.6105H151.021L152.476 50.7546ZM152.961 48.5586H154.415L154.173 49.7786H152.718L152.961 48.5586Z" fill="white"/>
<path d="M155.143 55.6329C155.143 55.3889 155.143 55.1449 155.143 54.9009L155.87 51.9729H155.143L155.385 50.7529H156.112L156.597 49.0449H158.052L157.567 50.7529H159.021L158.779 51.9729H157.324L156.597 54.9009V55.1449C156.597 55.3889 156.839 55.6329 157.082 55.6329C157.324 55.6329 157.567 55.6329 158.052 55.3889L157.567 56.6089C157.324 56.8529 156.839 56.8529 156.355 56.8529C155.627 56.6089 155.143 56.1209 155.143 55.6329Z" fill="white"/>
<path d="M164.597 50.7546H166.051L164.597 56.6105H163.142L164.597 50.7546ZM165.081 48.5586H166.536L166.293 49.7786H164.839L165.081 48.5586Z" fill="white"/>
<path d="M167.991 50.7557H169.445L169.203 51.4877C169.687 50.9997 170.172 50.5117 170.899 50.5117C171.869 50.5117 172.596 51.2437 172.596 52.2197C172.596 52.4637 172.596 52.9517 172.354 53.1957L171.627 56.3677H170.172L171.142 53.1957C171.142 52.9517 171.142 52.7077 171.142 52.7077C171.142 52.2197 170.657 51.7317 170.172 51.7317C169.445 51.7317 168.718 52.2197 168.475 53.1957L167.506 56.6117H166.051L167.991 50.7557Z" fill="white"/>
<path d="M178.899 50.7557H180.354L180.111 51.4877C180.596 50.9997 181.081 50.5117 181.808 50.5117C182.778 50.5117 183.263 50.9997 183.505 51.7317C183.99 50.9997 184.717 50.5117 185.687 50.5117C186.656 50.5117 187.384 51.2437 187.384 52.2197C187.384 52.4637 187.384 52.9517 187.141 53.1957L186.172 56.3677H184.717L185.687 53.1957C185.687 52.9517 185.687 52.7077 185.687 52.7077C185.687 52.2197 185.444 51.7317 184.717 51.7317C183.99 51.7317 183.505 52.2197 183.263 53.1957L182.293 56.6117H180.839L181.808 53.4397C181.808 53.1957 181.808 52.9517 181.808 52.9517C181.808 52.4637 181.566 51.9757 180.839 51.9757C180.111 51.9757 179.626 52.4637 179.384 53.4397L178.414 56.8557H176.96L178.899 50.7557Z" fill="white"/>
<path d="M188.837 50.752H190.292L190.777 55.1439L193.443 50.752H194.898L191.019 56.8519C190.292 58.0719 189.564 58.5599 188.595 58.5599C188.11 58.5599 187.625 58.3159 187.383 58.0719L188.11 57.0959C188.352 57.3399 188.595 57.3399 188.837 57.3399C189.08 57.3399 189.564 57.0959 189.807 56.6079L188.837 50.752Z" fill="white"/>
<path d="M198.05 57.5877L198.777 56.6117C199.504 57.0997 200.231 57.3437 200.958 57.3437C201.686 57.3437 202.171 57.0997 202.413 56.8557C202.655 56.6117 202.898 56.1237 203.14 55.6357V55.3917C202.655 55.8797 201.928 56.1237 201.201 56.1237C199.989 56.1237 199.019 55.3917 199.019 53.9277C199.019 52.9517 199.504 51.9757 199.989 51.4877C200.474 50.9997 201.443 50.5117 202.171 50.5117C203.383 50.5117 203.867 50.9997 204.11 51.7317L204.352 50.7557H205.807L204.595 55.6357C204.352 56.6117 204.11 57.0997 203.625 57.5877C203.14 58.0757 202.413 58.3197 201.443 58.3197C199.989 58.3197 198.777 58.0757 198.05 57.5877ZM203.14 54.4157C203.625 53.9277 203.625 53.6837 203.625 52.9517C203.625 52.2197 203.14 51.7317 202.171 51.7317C201.686 51.7317 201.201 51.9757 200.716 52.2197C200.231 52.7077 199.989 53.1957 199.989 53.6837C199.989 54.4157 200.474 54.9037 201.443 54.9037C202.171 55.1477 202.655 54.9037 203.14 54.4157Z" fill="white"/>
<path d="M208.472 48.5586H209.927L209.2 51.4866C209.684 50.9986 210.169 50.5106 210.897 50.5106C211.866 50.5106 212.593 51.2426 212.593 52.2186C212.593 52.4626 212.593 52.9506 212.351 53.1946L211.624 56.3665H210.169L211.139 53.1946C211.139 52.9506 211.139 52.7066 211.139 52.7066C211.139 52.2186 210.654 51.7306 210.169 51.7306C209.442 51.7306 208.715 52.2186 208.472 53.1946L207.503 56.6105H206.048L208.472 48.5586Z" fill="white"/>
<path d="M220.107 53.1957C220.107 54.1717 219.623 54.9037 219.138 55.6357C218.411 56.3677 217.683 56.6117 216.714 56.6117C215.017 56.6117 214.047 55.3917 214.047 53.9277C214.047 52.9517 214.532 52.2197 215.017 51.4877C215.744 50.7557 216.471 50.5117 217.441 50.5117C218.895 50.5117 220.107 51.7317 220.107 53.1957ZM217.926 54.9037C218.411 54.4157 218.653 53.6837 218.653 53.1957C218.653 52.2197 217.926 51.7317 217.199 51.7317C216.714 51.7317 216.229 51.9757 215.987 52.2197C215.502 52.7077 215.259 53.4397 215.259 53.9277C215.259 54.9037 215.987 55.3917 216.714 55.3917C217.199 55.6357 217.683 55.3917 217.926 54.9037Z" fill="white"/>
<path d="M220.593 55.6357L221.32 54.9037C222.048 55.6357 222.533 55.6357 223.26 55.6357C223.745 55.6357 224.229 55.3917 224.229 54.9037C224.229 54.6597 223.987 54.4157 223.26 54.1717C222.29 53.6837 221.563 53.4397 221.563 52.4637C221.563 51.2437 222.533 50.5117 223.745 50.5117C224.714 50.5117 225.441 50.9997 225.926 51.2437L225.199 52.2197C224.714 51.7317 224.229 51.4877 223.502 51.4877C223.017 51.4877 222.533 51.7317 222.533 52.2197C222.533 52.4637 222.775 52.7077 223.502 52.9517C224.472 53.4397 225.199 53.6837 225.199 54.6597C225.199 55.8797 224.229 56.6117 222.775 56.6117C222.29 56.8557 221.32 56.3677 220.593 55.6357Z" fill="white"/>
<path d="M227.381 55.6329C227.381 55.3889 227.381 55.1449 227.381 54.9009L228.109 51.9729H227.381L227.624 50.7529H228.351L228.836 49.0449H230.29L229.806 50.7529H231.26L231.018 51.9729H229.563L228.836 54.9009V55.1449C228.836 55.3889 229.078 55.6329 229.321 55.6329C229.563 55.6329 229.806 55.6329 230.29 55.3889L230.048 56.6089C229.806 56.8529 229.321 56.8529 228.836 56.8529C227.866 56.6089 227.381 56.1209 227.381 55.6329Z" fill="white"/>
<path d="M231.987 55.1445H233.441L232.956 56.6085H231.502L231.987 55.1445Z" fill="white"/>
<path d="M65.936 13.6639C65.936 8.78393 69.8145 4.87996 74.6627 4.87996V0C67.148 0 61.0878 6.09995 61.0878 13.6639C61.0878 21.2278 67.148 27.3278 74.6627 27.3278V22.4478C69.8145 22.4478 65.936 18.5439 65.936 13.6639Z" fill="white"/>
<path d="M201.2 11.4679C195.867 10.2479 195.14 9.27193 195.14 7.56394C195.14 5.85596 196.836 4.63596 199.261 4.63596C201.442 4.63596 203.624 5.36796 205.806 6.83195L208.957 3.65997C206.048 0.975993 202.897 0 199.261 0C193.928 0 190.049 3.17198 190.049 7.80794C190.049 12.6879 193.2 14.3959 199.018 15.8599C203.866 17.0799 204.836 18.0559 204.836 19.7639C204.836 21.7158 202.897 22.9358 200.23 22.9358C197.321 22.9358 194.897 21.9598 192.231 19.7639L189.079 22.9358C192.231 25.6198 196.109 27.0838 200.23 27.0838C206.048 27.0838 209.684 23.9118 209.684 19.0319C209.684 14.3959 206.29 12.6879 201.2 11.4679Z" fill="white"/>
<path d="M215.26 0.488281V5.36824H223.259V27.0841H228.107V5.36824H235.864V0.488281H215.26Z" fill="white"/>
<path d="M170.415 0V4.87996C175.263 4.87996 179.141 8.78393 179.141 13.6639C179.141 18.5439 175.263 22.4478 170.415 22.4478V27.3278C177.929 27.3278 183.989 21.2278 183.989 13.6639C184.232 6.09995 177.929 0 170.415 0Z" fill="white"/>
<path d="M170.414 0H74.6616V4.87996H170.414V0Z" fill="white"/>
<path d="M170.414 22.4473H74.6616V27.3272H170.414V22.4473Z" fill="white"/>
</svg>
