<svg width="347" height="214" viewBox="0 0 347 214" fill="none" xmlns="http://www.w3.org/2000/svg">
<path d="M2 165.145V2H298.051L344.865 48.8554V212H48.8133L2 165.145Z" stroke="white" stroke-width="3.2744" stroke-miterlimit="10"/>
<path d="M41.5274 64.3418C54.0962 64.3418 64.2852 54.1436 64.2852 41.5635C64.2852 28.9834 54.0962 18.7852 41.5274 18.7852C28.9586 18.7852 18.7695 28.9834 18.7695 41.5635C18.7695 54.1436 28.9586 64.3418 41.5274 64.3418Z" stroke="white" stroke-width="2.4653" stroke-miterlimit="10"/>
<path d="M239.759 117.79C240.857 113.394 241.356 108.899 241.356 104.203C241.356 72.4334 215.603 46.7578 183.962 46.7578C152.321 46.7578 126.568 72.5333 126.568 104.203C126.568 108.899 127.167 113.394 128.165 117.79" stroke="white" stroke-width="3.7037" stroke-miterlimit="10"/>
<path d="M284.476 185.625V165.544L268.406 149.459V128.279H183.962H99.5185V149.459L83.4482 165.544V185.625" stroke="white" stroke-width="3.7037" stroke-miterlimit="10"/>
<path d="M199.234 187.824L194.742 141.068H173.282L168.79 187.824H199.234Z" stroke="white" stroke-width="3.7037" stroke-miterlimit="10"/>
<path d="M171.085 164.447H196.937" stroke="white" stroke-width="3.7037" stroke-miterlimit="10"/>
<path d="M146.631 93.1133H167.991" stroke="white" stroke-width="3.7037" stroke-miterlimit="10"/>
<path d="M199.933 93.1133H221.293" stroke="white" stroke-width="3.7037" stroke-miterlimit="10"/>
<path d="M41.5264 40.564C44.9443 40.564 47.715 37.7908 47.715 34.3699C47.715 30.949 44.9443 28.1758 41.5264 28.1758C38.1086 28.1758 35.3379 30.949 35.3379 34.3699C35.3379 37.7908 38.1086 40.564 41.5264 40.564Z" fill="white"/>
<path d="M41.5267 51.6525C45.551 51.6525 48.8132 48.3873 48.8132 44.3595C48.8132 40.3316 45.551 37.0664 41.5267 37.0664C37.5025 37.0664 34.2402 40.3316 34.2402 44.3595C34.2402 48.3873 37.5025 51.6525 41.5267 51.6525Z" fill="white"/>
<path d="M48.913 44.3594H34.2402V63.2414H48.913V44.3594Z" fill="white"/>
</svg>
