<?xml version="1.0" encoding="UTF-8" standalone="no"?>
<!DOCTYPE svg PUBLIC "-//W3C//DTD SVG 1.1//EN" "http://www.w3.org/Graphics/SVG/1.1/DTD/svg11.dtd">
<svg width="100%" height="100%" viewBox="0 0 48 48" version="1.1" xmlns="http://www.w3.org/2000/svg" xmlns:xlink="http://www.w3.org/1999/xlink" xml:space="preserve" xmlns:serif="http://www.serif.com/" style="fill-rule:evenodd;clip-rule:evenodd;stroke-linejoin:round;stroke-miterlimit:2;">
    <g transform="matrix(1.00042,0,0,4.55489,0,0)">
        <g transform="matrix(0.999578,0,0,0.219544,0,4.05047)">
            <path d="M10.402,5.21C10.406,3.106 9.141,1.207 7.198,0.399C5.255,-0.409 3.016,0.033 1.527,1.52C0.037,3.007 -0.409,5.245 0.395,7.189C1.2,9.134 3.097,10.402 5.201,10.402C8.07,10.402 10.397,8.079 10.402,5.21Z" style="fill-rule:nonzero;"/>
        </g>
        <g transform="matrix(0.999578,0,0,0.219544,0,4.05047)">
            <path d="M47.38,5.21C47.384,3.106 46.119,1.207 44.176,0.399C42.233,-0.409 39.994,0.033 38.505,1.52C37.016,3.007 36.569,5.245 37.373,7.189C38.178,9.134 40.075,10.402 42.179,10.402C45.048,10.402 47.375,8.079 47.38,5.21Z" style="fill-rule:nonzero;"/>
        </g>
        <g transform="matrix(0.999578,0,0,0.219544,0,4.05047)">
            <path d="M28.891,5.21C28.891,5.066 28.834,4.928 28.732,4.826C28.63,4.724 28.491,4.666 28.347,4.666L19.033,4.666C18.89,4.666 18.752,4.724 18.652,4.826C18.551,4.928 18.496,5.067 18.498,5.21C18.616,7.995 20.908,10.192 23.695,10.192C26.482,10.192 28.774,7.995 28.891,5.21Z" style="fill-rule:nonzero;"/>
        </g>
    </g>
</svg>
